<?xml version="1.0" encoding="UTF-8" standalone="no"?>
<!-- Generator: Adobe Illustrator 19.0.0, SVG Export Plug-In . SVG Version: 6.00 Build 0)  -->

<svg
   xmlns:dc="http://purl.org/dc/elements/1.1/"
   xmlns:cc="http://creativecommons.org/ns#"
   xmlns:rdf="http://www.w3.org/1999/02/22-rdf-syntax-ns#"
   xmlns:svg="http://www.w3.org/2000/svg"
   xmlns="http://www.w3.org/2000/svg"
   xmlns:sodipodi="http://sodipodi.sourceforge.net/DTD/sodipodi-0.dtd"
   xmlns:inkscape="http://www.inkscape.org/namespaces/inkscape"
   version="1.1"
   id="Capa_1"
   x="0px"
   y="0px"
   viewBox="0 0 512 512"
   style="enable-background:new 0 0 512 512;"
   xml:space="preserve"
   sodipodi:docname="help.svg"
   inkscape:export-filename="/home/mohsen/myproject/traqtor/Icons/help.png"
   inkscape:export-xdpi="12"
   inkscape:export-ydpi="12"
   inkscape:version="0.92.3 (2405546, 2018-03-11)"><metadata
   id="metadata49"><rdf:RDF><cc:Work
       rdf:about=""><dc:format>image/svg+xml</dc:format><dc:type
         rdf:resource="http://purl.org/dc/dcmitype/StillImage" /></cc:Work></rdf:RDF></metadata><defs
   id="defs47" /><sodipodi:namedview
   pagecolor="#ffffff"
   bordercolor="#666666"
   borderopacity="1"
   objecttolerance="10"
   gridtolerance="10"
   guidetolerance="10"
   inkscape:pageopacity="0"
   inkscape:pageshadow="2"
   inkscape:window-width="1920"
   inkscape:window-height="1016"
   id="namedview45"
   showgrid="false"
   inkscape:zoom="0.4609375"
   inkscape:cx="18.440678"
   inkscape:cy="246.23729"
   inkscape:window-x="0"
   inkscape:window-y="27"
   inkscape:window-maximized="1"
   inkscape:current-layer="Capa_1" />
<g
   id="g12">
	<g
   id="g10">
		<g
   id="g8">
			<path
   d="M248.158,343.22c-14.639,0-26.491,12.2-26.491,26.84c0,14.291,11.503,26.84,26.491,26.84     c14.988,0,26.84-12.548,26.84-26.84C274.998,355.42,262.799,343.22,248.158,343.22z"
   id="path2" />
			<path
   d="M252.69,140.002c-47.057,0-68.668,27.885-68.668,46.708c0,13.595,11.502,19.869,20.914,19.869     c18.822,0,11.154-26.84,46.708-26.84c17.429,0,31.372,7.669,31.372,23.703c0,18.824-19.52,29.629-31.023,39.389     c-10.108,8.714-23.354,23.006-23.354,52.983c0,18.125,4.879,23.354,19.171,23.354c17.08,0,20.565-7.668,20.565-14.291     c0-18.126,0.35-28.583,19.521-43.571c9.411-7.32,39.04-31.023,39.04-63.789S297.307,140.002,252.69,140.002z"
   id="path4" />
			<path
   d="M256,0C114.516,0,0,114.497,0,256v236c0,11.046,8.954,20,20,20h236c141.483,0,256-114.497,256-256     C512,114.516,397.503,0,256,0z M256,472H40V256c0-119.377,96.607-216,216-216c119.377,0,216,96.607,216,216     C472,375.377,375.393,472,256,472z"
   id="path6" />
		</g>
	</g>
</g>
<g
   id="g14">
</g>
<g
   id="g16">
</g>
<g
   id="g18">
</g>
<g
   id="g20">
</g>
<g
   id="g22">
</g>
<g
   id="g24">
</g>
<g
   id="g26">
</g>
<g
   id="g28">
</g>
<g
   id="g30">
</g>
<g
   id="g32">
</g>
<g
   id="g34">
</g>
<g
   id="g36">
</g>
<g
   id="g38">
</g>
<g
   id="g40">
</g>
<g
   id="g42">
</g>
</svg>