<?xml version="1.0" encoding="UTF-8" standalone="no"?>
<!-- Generator: Adobe Illustrator 19.0.0, SVG Export Plug-In . SVG Version: 6.00 Build 0)  -->

<svg
   xmlns:dc="http://purl.org/dc/elements/1.1/"
   xmlns:cc="http://creativecommons.org/ns#"
   xmlns:rdf="http://www.w3.org/1999/02/22-rdf-syntax-ns#"
   xmlns:svg="http://www.w3.org/2000/svg"
   xmlns="http://www.w3.org/2000/svg"
   xmlns:sodipodi="http://sodipodi.sourceforge.net/DTD/sodipodi-0.dtd"
   xmlns:inkscape="http://www.inkscape.org/namespaces/inkscape"
   version="1.1"
   id="Layer_1"
   x="0px"
   y="0px"
   viewBox="0 0 512 512"
   style="enable-background:new 0 0 512 512;"
   xml:space="preserve"
   sodipodi:docname="singapore.svg"
   inkscape:export-filename="/home/mohsen/myproject/qtractor/Icons/singapore.png"
   inkscape:export-xdpi="12"
   inkscape:export-ydpi="12"
   inkscape:version="0.92.3 (2405546, 2018-03-11)"><metadata
   id="metadata55"><rdf:RDF><cc:Work
       rdf:about=""><dc:format>image/svg+xml</dc:format><dc:type
         rdf:resource="http://purl.org/dc/dcmitype/StillImage" /></cc:Work></rdf:RDF></metadata><defs
   id="defs53" /><sodipodi:namedview
   pagecolor="#ffffff"
   bordercolor="#666666"
   borderopacity="1"
   objecttolerance="10"
   gridtolerance="10"
   guidetolerance="10"
   inkscape:pageopacity="0"
   inkscape:pageshadow="2"
   inkscape:window-width="1920"
   inkscape:window-height="1016"
   id="namedview51"
   showgrid="false"
   inkscape:zoom="0.4609375"
   inkscape:cx="14.101695"
   inkscape:cy="256"
   inkscape:window-x="0"
   inkscape:window-y="27"
   inkscape:window-maximized="1"
   inkscape:current-layer="Layer_1" />
<circle
   style="fill:#F0F0F0;"
   cx="256"
   cy="256"
   r="256"
   id="circle2" />
<path
   style="fill:#D80027;"
   d="M0,256.001C0,114.616,114.616,0,256,0s256,114.616,256,256.001"
   id="path4" />
<g
   id="g18">
	<path
   style="fill:#F0F0F0;"
   d="M155.826,133.564c0-37.298,26.213-68.456,61.217-76.101c-5.38-1.174-10.961-1.811-16.696-1.811   c-43.031,0-77.913,34.882-77.913,77.913s34.882,77.913,77.913,77.913c5.733,0,11.315-0.637,16.696-1.812   C182.039,202.021,155.826,170.863,155.826,133.564z"
   id="path6" />
	<polygon
   style="fill:#F0F0F0;"
   points="256,61.217 261.526,78.222 279.407,78.222 264.94,88.733 270.466,105.738 256,95.229    241.534,105.738 247.06,88.733 232.594,78.222 250.474,78.222  "
   id="polygon8" />
	<polygon
   style="fill:#F0F0F0;"
   points="212.625,94.608 218.15,111.614 236.031,111.614 221.565,122.124 227.091,139.129    212.625,128.62 198.157,139.129 203.684,122.124 189.217,111.614 207.098,111.614  "
   id="polygon10" />
	<polygon
   style="fill:#F0F0F0;"
   points="299.376,94.608 304.903,111.614 322.783,111.614 308.316,122.124 313.843,139.129    299.376,128.62 284.91,139.129 290.436,122.124 275.97,111.614 293.85,111.614  "
   id="polygon12" />
	<polygon
   style="fill:#F0F0F0;"
   points="282.681,144.695 288.207,161.701 306.087,161.701 291.621,172.211 297.147,189.216    282.681,178.707 268.215,189.216 273.741,172.211 259.275,161.701 277.154,161.701  "
   id="polygon14" />
	<polygon
   style="fill:#F0F0F0;"
   points="229.32,144.695 234.845,161.701 252.727,161.701 238.26,172.211 243.787,189.216    229.32,178.707 214.853,189.216 220.379,172.211 205.913,161.701 223.794,161.701  "
   id="polygon16" />
</g>
<g
   id="g20">
</g>
<g
   id="g22">
</g>
<g
   id="g24">
</g>
<g
   id="g26">
</g>
<g
   id="g28">
</g>
<g
   id="g30">
</g>
<g
   id="g32">
</g>
<g
   id="g34">
</g>
<g
   id="g36">
</g>
<g
   id="g38">
</g>
<g
   id="g40">
</g>
<g
   id="g42">
</g>
<g
   id="g44">
</g>
<g
   id="g46">
</g>
<g
   id="g48">
</g>
</svg>