<?xml version="1.0" encoding="UTF-8" standalone="no"?>
<!-- Generator: Adobe Illustrator 19.0.0, SVG Export Plug-In . SVG Version: 6.00 Build 0)  -->

<svg
   xmlns:dc="http://purl.org/dc/elements/1.1/"
   xmlns:cc="http://creativecommons.org/ns#"
   xmlns:rdf="http://www.w3.org/1999/02/22-rdf-syntax-ns#"
   xmlns:svg="http://www.w3.org/2000/svg"
   xmlns="http://www.w3.org/2000/svg"
   xmlns:sodipodi="http://sodipodi.sourceforge.net/DTD/sodipodi-0.dtd"
   xmlns:inkscape="http://www.inkscape.org/namespaces/inkscape"
   version="1.1"
   id="Capa_1"
   x="0px"
   y="0px"
   viewBox="0 0 512.004 512.004"
   style="enable-background:new 0 0 512.004 512.004;"
   xml:space="preserve"
   sodipodi:docname="speed.svg"
   inkscape:export-filename="/home/mohsen/myproject/Qtractor/Icons/speed.png"
   inkscape:export-xdpi="11.999896"
   inkscape:export-ydpi="11.999896"
   inkscape:version="0.92.3 (2405546, 2018-03-11)"><metadata
   id="metadata55"><rdf:RDF><cc:Work
       rdf:about=""><dc:format>image/svg+xml</dc:format><dc:type
         rdf:resource="http://purl.org/dc/dcmitype/StillImage" /></cc:Work></rdf:RDF></metadata><defs
   id="defs53" /><sodipodi:namedview
   pagecolor="#ffffff"
   bordercolor="#666666"
   borderopacity="1"
   objecttolerance="10"
   gridtolerance="10"
   guidetolerance="10"
   inkscape:pageopacity="0"
   inkscape:pageshadow="2"
   inkscape:window-width="1920"
   inkscape:window-height="1016"
   id="namedview51"
   showgrid="false"
   inkscape:zoom="0.46093387"
   inkscape:cx="15.18656"
   inkscape:cy="256.00201"
   inkscape:window-x="0"
   inkscape:window-y="27"
   inkscape:window-maximized="1"
   inkscape:current-layer="Capa_1" />
<g
   id="g6">
	<path
   style="fill:#AFB6BB;"
   d="M77.339,196.709L23.799,333.537l47.59-35.69l37.032,7.327   c14.813-38.788,31.894-72.589,50.476-102.135L77.339,196.709z"
   id="path2" />
	<path
   style="fill:#AFB6BB;"
   d="M315.295,434.666l-136.828,53.539l35.69-47.59l-7.327-37.032   c38.788-14.813,72.589-31.894,102.135-50.476L315.295,434.666z"
   id="path4" />
</g>
<path
   style="fill:#EBBA16;"
   d="M135.345,386.361l-9.702-9.702c-24.514-18.511-60.601-7.742-73.454,20.524L0,512.004l114.82-52.189  C143.087,446.963,153.865,410.875,135.345,386.361z"
   id="path8" />
<path
   style="fill:#E7ECED;"
   d="M511.621,0.384c0,0-285.555-23.799-410.483,303.404l41.975,41.975L166.25,368.9l41.975,41.975  C535.411,285.939,511.621,0.384,511.621,0.384z"
   id="path10" />
<polygon
   style="fill:#AFB6BB;"
   points="247.173,264.832 187.683,264.832 113.029,398.976 247.173,317.797 "
   id="polygon12" />
<path
   style="fill:#DD352E;"
   d="M334.53,37.469l140.006,140.006c43.873-95.232,37.076-177.09,37.076-177.09  S429.762-6.405,334.53,37.469z"
   id="path14" />
<circle
   style="fill:#366DB6;"
   cx="327.151"
   cy="184.81"
   r="67.302"
   id="circle16" />
<path
   style="fill:#FFFFFF;"
   d="M327.195,227.27c-10.876,0-21.76-4.14-30.04-12.42c-16.561-16.561-16.561-43.511,0-60.072  s43.52-16.561,60.072,0c3.452,3.452,3.452,9.031,0,12.482c-3.443,3.452-9.039,3.452-12.482,0c-9.684-9.684-25.432-9.675-35.107,0  c-9.675,9.684-9.675,25.423,0,35.107c9.684,9.684,25.432,9.693,35.107,0c3.443-3.452,9.039-3.452,12.482,0  c3.452,3.452,3.452,9.031,0,12.482C348.955,223.121,338.079,227.27,327.195,227.27z"
   id="path18" />
<g
   id="g20">
</g>
<g
   id="g22">
</g>
<g
   id="g24">
</g>
<g
   id="g26">
</g>
<g
   id="g28">
</g>
<g
   id="g30">
</g>
<g
   id="g32">
</g>
<g
   id="g34">
</g>
<g
   id="g36">
</g>
<g
   id="g38">
</g>
<g
   id="g40">
</g>
<g
   id="g42">
</g>
<g
   id="g44">
</g>
<g
   id="g46">
</g>
<g
   id="g48">
</g>
</svg>