<?xml version="1.0" encoding="UTF-8" standalone="no"?>
<svg
   xmlns:dc="http://purl.org/dc/elements/1.1/"
   xmlns:cc="http://creativecommons.org/ns#"
   xmlns:rdf="http://www.w3.org/1999/02/22-rdf-syntax-ns#"
   xmlns:svg="http://www.w3.org/2000/svg"
   xmlns="http://www.w3.org/2000/svg"
   xmlns:sodipodi="http://sodipodi.sourceforge.net/DTD/sodipodi-0.dtd"
   xmlns:inkscape="http://www.inkscape.org/namespaces/inkscape"
   height="64pt"
   version="1.1"
   viewBox="0 0 64 64"
   width="64pt"
   id="svg19"
   sodipodi:docname="traqtor.svg"
   inkscape:version="0.92.3 (2405546, 2018-03-11)">
  <sodipodi:namedview
     pagecolor="#ffffff"
     bordercolor="#666666"
     borderopacity="1"
     objecttolerance="10"
     gridtolerance="10"
     guidetolerance="10"
     inkscape:pageopacity="0"
     inkscape:pageshadow="2"
     inkscape:window-width="1920"
     inkscape:window-height="1016"
     id="namedview21"
     showgrid="false"
     inkscape:zoom="3.9111844"
     inkscape:cx="11.232365"
     inkscape:cy="57.645713"
     inkscape:window-x="0"
     inkscape:window-y="27"
     inkscape:window-maximized="1"
     inkscape:current-layer="svg19" />
  <metadata
     id="metadata25">
    <rdf:RDF>
      <cc:Work
         rdf:about="">
        <dc:format>image/svg+xml</dc:format>
        <dc:type
           rdf:resource="http://purl.org/dc/dcmitype/StillImage" />
        <dc:title />
      </cc:Work>
    </rdf:RDF>
  </metadata>
  <defs
     id="defs23" />
  <rect
     style="opacity:1;fill:#414141;fill-opacity:1;fill-rule:nonzero;stroke:#000000;stroke-width:0;stroke-linecap:round;stroke-linejoin:round;stroke-miterlimit:4;stroke-dasharray:none;stroke-dashoffset:0;stroke-opacity:1;paint-order:normal"
     id="rect857"
     width="56.623032"
     height="54.171612"
     x="3.6884832"
     y="4.8742199"
     ry="9.0705137" />
  <path
     sodipodi:nodetypes="cccccccssccc"
     inkscape:connector-curvature="0"
     id="path859"
     d="m 44.344233,4.8746569 c -1.463344,0.6983713 -2.814666,2.5161719 -2.649934,4.675717 0.301802,3.6357811 -1.949741,7.2304371 -5.366467,8.1170701 -3.25625,0.540686 -6.457015,-0.381679 -9.972489,-0.08983 -5.415214,0.574917 -9.786895,5.398784 -9.781991,10.853735 0.01368,6.544008 2.245864,12.783762 6.190409,17.716307 6.251458,6.673953 6.206227,6.681165 12.738987,12.978122 l 16.106752,-0.021 c 4.022502,-0.0052 8.618319,-4.12944 8.622027,-8.059387 l 0.02969,-31.463062 C 54.502615,13.544705 50.816443,9.931404 46.007604,4.8746569 Z"
     style="opacity:1;fill:#000000;fill-opacity:1;fill-rule:nonzero;stroke:#000000;stroke-width:0;stroke-linecap:round;stroke-linejoin:round;stroke-miterlimit:4;stroke-dasharray:none;stroke-dashoffset:0;stroke-opacity:1;paint-order:normal" />
  <g
     id="g886"
     transform="matrix(0.77145321,0,0,0.77145321,-114.34958,19.882012)"
     style="fill:#e91e63;fill-opacity:1">
    <g
       id="g827"
       style="fill:#e91e63;fill-opacity:1">
      <g
         id="g825"
         style="fill:#e91e63;fill-opacity:1">
        <path
           id="path819"
           d="M 28.755,6.968 28.285,7.117 25.782,7.34 25.075,8.469 24.562,8.306 22.57,6.51 22.281,5.576 21.894,4.58 20.642,3.457 19.165,3.168 19.131,3.844 20.578,5.256 21.286,6.09 20.49,6.506 19.842,6.315 18.871,5.91 18.904,5.127 17.63,4.603 l -0.423,1.841 -1.284,0.291 0.127,1.027 1.673,0.322 0.289,-1.641 1.381,0.204 0.642,0.376 h 1.03 l 0.705,1.412 1.869,1.896 -0.137,0.737 -1.507,-0.192 -2.604,1.315 -1.875,2.249 -0.244,0.996 h -0.673 l -1.254,-0.578 -1.218,0.578 0.303,1.285 0.53,-0.611 0.932,-0.029 -0.065,1.154 0.772,0.226 0.771,0.866 1.259,-0.354 1.438,0.227 1.67,0.449 0.834,0.098 1.414,1.605 2.729,1.605 -1.765,3.372 -1.863,0.866 -0.707,1.927 -2.696,1.8 -0.287,1.038 C 26.288,29.3 31.415,23.109 31.415,15.707 31.413,12.474 30.433,9.465 28.755,6.968 Z"
           inkscape:connector-curvature="0"
           style="fill:#e91e63;fill-opacity:1" />
        <path
           id="path821"
           d="m 17.515,23.917 -1.144,-2.121 1.05,-2.188 -1.05,-0.314 L 15.192,18.11 12.58,17.524 11.713,15.71 v 1.077 H 11.331 L 9.08,13.735 V 11.228 L 7.43,8.545 4.81,9.012 H 3.045 L 2.157,8.43 3.29,7.532 2.16,7.793 c -1.362,2.326 -2.156,5.025 -2.156,7.916 0,8.673 7.031,15.707 15.705,15.707 0.668,0 1.323,-0.059 1.971,-0.137 l -0.164,-1.903 c 0,0 0.721,-2.826 0.721,-2.922 -10e-4,-0.097 -0.722,-2.537 -0.722,-2.537 z"
           inkscape:connector-curvature="0"
           style="fill:#e91e63;fill-opacity:1" />
        <path
           id="path823"
           d="M 5.84,5.065 8.63,4.676 9.916,3.971 11.363,4.388 13.675,4.26 14.467,3.015 15.622,3.205 18.427,2.942 19.2,2.09 20.29,1.362 21.832,1.594 22.394,1.509 C 20.363,0.553 18.103,0 15.708,0 10.833,0 6.474,2.222 3.596,5.711 H 3.604 Z M 16.372,1.562 17.976,0.679 19.006,1.274 17.515,2.409 16.091,2.552 15.45,2.136 Z m -4.751,0.129 0.708,0.295 0.927,-0.295 0.505,0.875 -2.14,0.562 -1.029,-0.602 c -0.001,0 1.006,-0.648 1.029,-0.835 z"
           inkscape:connector-curvature="0"
           style="fill:#e91e63;fill-opacity:1" />
      </g>
    </g>
    <g
       id="g829"
       style="fill:#e91e63;fill-opacity:1" />
    <g
       id="g831"
       style="fill:#e91e63;fill-opacity:1" />
    <g
       id="g833"
       style="fill:#e91e63;fill-opacity:1" />
    <g
       id="g835"
       style="fill:#e91e63;fill-opacity:1" />
    <g
       id="g837"
       style="fill:#e91e63;fill-opacity:1" />
    <g
       id="g839"
       style="fill:#e91e63;fill-opacity:1" />
    <g
       id="g841"
       style="fill:#e91e63;fill-opacity:1" />
    <g
       id="g843"
       style="fill:#e91e63;fill-opacity:1" />
    <g
       id="g845"
       style="fill:#e91e63;fill-opacity:1" />
    <g
       id="g847"
       style="fill:#e91e63;fill-opacity:1" />
    <g
       id="g849"
       style="fill:#e91e63;fill-opacity:1" />
    <g
       id="g851"
       style="fill:#e91e63;fill-opacity:1" />
    <g
       id="g853"
       style="fill:#e91e63;fill-opacity:1" />
    <g
       id="g855"
       style="fill:#e91e63;fill-opacity:1" />
    <g
       id="g857"
       style="fill:#e91e63;fill-opacity:1" />
  </g>
  <g
     id="g861"
     transform="matrix(0.04766953,0,0,0.04766953,-64.542378,19.796602)"
     style="fill:#e91e63;fill-opacity:1">
    <path
       id="path24"
       d="m 332.62891,332.11328 c 1.41796,1.22656 3.16406,1.82422 4.90234,1.82422 2.10156,0 4.19141,-0.87891 5.67578,-2.59375 18.08203,-20.91016 28.03906,-47.66797 28.03906,-75.34375 0,-23.63672 -7.10937,-46.35938 -20.5664,-65.71094 -2.36328,-3.39844 -7.03907,-4.23828 -10.4375,-1.875 -3.40235,2.36719 -4.24219,7.03906 -1.87891,10.44141 11.69922,16.82422 17.88281,36.58203 17.88281,57.14453 0,24.07422 -8.66015,47.34766 -24.38672,65.53125 -2.71093,3.13672 -2.36718,7.87109 0.76954,10.58203 z m 0,0"
       inkscape:connector-curvature="0"
       style="fill:#e91e63;fill-opacity:1" />
    <path
       id="path26"
       d="m 318.97656,343.74609 c -2.17578,-3.52343 -6.80469,-4.60937 -10.32422,-2.42968 -15.78906,9.76562 -33.99609,14.92968 -52.65234,14.92968 -55.27344,0 -100.24609,-44.96875 -100.24609,-100.24609 0,-24.38672 8.75781,-46.76172 23.28515,-64.15625 8.97656,11.21875 22.625,17.94922 37.28906,17.94922 26.33985,0 47.76954,-21.42969 47.76954,-47.76953 0,-2.00391 -0.12891,-3.9961 -0.37891,-5.96875 19.60938,1.47265 38.05078,8.55859 53.72266,20.73437 3.26953,2.53906 7.98047,1.94922 10.52343,-1.32422 2.53907,-3.26953 1.94922,-7.98047 -1.32422,-10.52343 -20.36718,-15.82422 -44.79687,-24.1875 -70.64062,-24.1875 -63.54688,0 -115.24609,51.69921 -115.24609,115.24609 0,63.54687 51.69921,115.24609 115.24609,115.24609 21.44531,0 42.37891,-5.9375 60.54297,-17.17578 3.52344,-2.17578 4.61328,-6.80078 2.43359,-10.32422 z M 216.32812,194.79297 c -10.69921,0 -20.62109,-5.22266 -26.72656,-13.82422 15.94922,-14.12891 36.41016,-23.26953 58.92578,-24.9375 0.36328,1.96875 0.57032,3.96875 0.57032,5.99219 0,18.07031 -14.70313,32.76953 -32.76954,32.76953 z m 0,0"
       inkscape:connector-curvature="0"
       style="fill:#e91e63;fill-opacity:1" />
    <path
       id="path28"
       d="m 430.20703,148.25391 c 0,-22.07813 -17.96094,-40.03907 -40.03516,-40.03907 -8.39843,0 -16.19531,2.60547 -22.64062,7.03907 C 335.93359,90.195312 296.4375,76.417969 256,76.417969 156.98047,76.417969 76.417969,156.97656 76.417969,256 c 0,99.02344 80.562501,179.58203 179.582031,179.58203 7.48828,0 15.02734,-0.46484 22.41016,-1.38672 4.10937,-0.51172 7.02734,-4.25781 6.51562,-8.36719 -0.51172,-4.11328 -4.26562,-7.03125 -8.36719,-6.51562 -6.77343,0.83984 -13.6875,1.26953 -20.55859,1.26953 C 165.25,420.58203 91.417969,346.75 91.417969,256 91.417969,165.25 165.25,91.417969 256,91.417969 c 36.51172,0 72.18359,12.250001 100.91406,34.566401 -4.27734,6.3711 -6.78125,14.03516 -6.78125,22.26954 0,22.07812 17.96094,40.03515 40.03906,40.03515 5.14454,0 10.0586,-0.98437 14.58204,-2.75781 10.35937,21.875 15.82812,46.09375 15.82812,70.46875 0,64.94531 -38.34766,123.98828 -97.6875,150.42187 -3.78515,1.6836 -5.48437,6.11719 -3.80078,9.90235 1.24219,2.78906 3.98438,4.44922 6.85547,4.44922 1.01953,0 2.05469,-0.20703 3.04687,-0.65235 C 393.74219,391.28516 435.58203,326.86328 435.58203,256 c 0,-27.20703 -6.23047,-54.24609 -18.05469,-78.55469 7.79688,-7.30859 12.67969,-17.6875 12.67969,-29.1914 z m -65.07422,0 c 0,-13.80469 11.23047,-25.03907 25.03906,-25.03907 13.80469,0 25.03516,11.23438 25.03516,25.03907 0,13.80468 -11.23047,25.03515 -25.03516,25.03515 -13.80859,0 -25.03906,-11.23047 -25.03906,-25.03515 z m 0,0"
       inkscape:connector-curvature="0"
       style="fill:#e91e63;fill-opacity:1" />
    <path
       id="path30"
       d="M 497.86719,340.04687 C 507.23828,313.08203 512,284.83203 512,256 512,187.62109 485.37109,123.33203 437.01953,74.980469 388.66797,26.628906 324.37891,0 256,0 c -4.14453,0 -7.5,3.359375 -7.5,7.5 0,4.140625 3.35547,7.5 7.5,7.5 64.375,0 124.89453,25.066406 170.41406,70.585938 C 471.93359,131.10547 497,191.625 497,256 c 0,26.82812 -4.36719,53.11719 -12.98047,78.22266 -1.83984,-0.31641 -3.72656,-0.48828 -5.65625,-0.48828 -18.42187,0 -33.41016,14.98828 -33.41016,33.41015 0,9.53516 4.02344,18.14453 10.45313,24.23828 C 410.38672,457.60547 336.19141,497 256,497 c -43.17188,0 -85.35938,-11.5 -122.30078,-33.29297 4.82422,-7.89453 7.60937,-17.16797 7.60937,-27.07812 0,-28.72266 -23.36718,-52.08594 -52.085934,-52.08594 -11.386718,0 -21.921875,3.67969 -30.5,9.90234 C 30.101562,353.78125 15,306.07422 15,256 15,187.56641 44.113281,122.4375 94.96875,76.722656 c 5.60938,4.257813 12.59375,6.792969 20.16406,6.792969 18.42188,0 33.40625,-14.988281 33.40625,-33.410156 0,-3.191407 -0.45703,-6.277344 -1.29687,-9.199219 15.65625,-7.933594 32.17187,-14.160156 49.15625,-18.480469 4.01562,-1.023437 6.4414,-5.105469 5.42187,-9.117187 -1.01953,-4.015625 -5.10547,-6.441406 -9.11719,-5.421875 -18.23437,4.640625 -35.95703,11.339843 -52.74218,19.894531 -6.1211,-6.800781 -14.98438,-11.085938 -24.82813,-11.085938 -18.421872,0 -33.410154,14.988282 -33.410154,33.410157 0,5.433593 1.3125,10.5625 3.621094,15.101562 C 31.078125,113.78125 0,183.125 0,256 c 0,54 16.523438,105.42187 47.839844,149.04687 -6.707032,8.76563 -10.703125,19.71485 -10.703125,31.58204 0,6.57031 1.222656,13 3.632812,19.10546 1.519531,3.85547 5.875,5.7461 9.726563,4.22657 3.855468,-1.52344 5.746094,-5.87891 4.226562,-9.73047 -1.71875,-4.34766 -2.585937,-8.92188 -2.585937,-13.60156 0,-20.44922 16.636719,-37.08594 37.085937,-37.08594 20.449224,0 37.085934,16.63672 37.085934,37.08594 0,20.44921 -16.63671,37.08593 -37.085934,37.08593 -5.339844,0 -10.503906,-1.12109 -15.355468,-3.32812 -3.769532,-1.71875 -8.21875,-0.0547 -9.933594,3.71484 -1.71875,3.76953 -0.05469,8.21875 3.714844,9.9336 6.816406,3.10546 14.074218,4.67968 21.574218,4.67968 13.347654,0 25.539064,-5.05468 34.765624,-13.34375 C 163.73828,499.33594 209.32812,512 256,512 c 85.50391,0 164.58984,-42.16016 212.35547,-112.98047 3.16015,0.99609 6.52344,1.53516 10.00781,1.53516 18.42188,0 33.41016,-14.98828 33.41016,-33.41016 0,-11.14844 -5.49219,-21.02734 -13.90625,-27.09766 z M 115.13281,31.695312 c 10.14844,0 18.40625,8.257813 18.40625,18.410157 0,10.152343 -8.25781,18.410156 -18.40625,18.410156 -10.15234,0 -18.410154,-8.257813 -18.410154,-18.410156 0,-10.152344 8.257814,-18.410157 18.410154,-18.410157 z M 478.36328,385.55469 c -10.14844,0 -18.41016,-8.25782 -18.41016,-18.41016 0,-10.15234 8.26172,-18.41016 18.41016,-18.41016 10.15234,0 18.41016,8.25782 18.41016,18.41016 0,10.15234 -8.25781,18.41016 -18.41016,18.41016 z m 0,0"
       inkscape:connector-curvature="0"
       style="fill:#e91e63;fill-opacity:1" />
    <path
       id="path32"
       d="m 237.10156,261.42969 c -17.38672,0 -31.53515,14.14453 -31.53515,31.53515 0,17.38672 14.14843,31.53125 31.53515,31.53125 17.39063,0 31.53516,-14.14453 31.53516,-31.53125 0,-17.39062 -14.14844,-31.53515 -31.53516,-31.53515 z m 0,48.0664 c -9.11719,0 -16.53515,-7.41406 -16.53515,-16.53125 0,-9.12109 7.41796,-16.53515 16.53515,-16.53515 9.11719,0 16.53516,7.41406 16.53516,16.53515 0,9.11719 -7.41797,16.53125 -16.53516,16.53125 z m 0,0"
       inkscape:connector-curvature="0"
       style="fill:#e91e63;fill-opacity:1" />
    <path
       id="path34"
       d="m 286.12891,194.69922 h 0.10937 0.0352 c 4.125,0 7.48047,-3.33985 7.5,-7.46875 0.0156,-4.14063 -3.32813,-7.51563 -7.46875,-7.53125 h -0.11328 c -0.0117,0 -0.0195,0 -0.0352,0 -4.125,0 -7.48047,3.33594 -7.49609,7.46484 -0.0195,4.14453 3.32421,7.51563 7.46875,7.53516 z m 0,0"
       inkscape:connector-curvature="0"
       style="fill:#e91e63;fill-opacity:1" />
    <path
       id="path36"
       d="m 297.39453,265.11719 c 4.14453,0 7.5,-3.35938 7.5,-7.5 0,-4.14063 -3.35547,-7.5 -7.5,-7.5 h -0.11328 c -4.14063,0 -7.5,3.35937 -7.5,7.5 0,4.14062 3.35937,7.5 7.5,7.5 z m 0,0"
       inkscape:connector-curvature="0"
       style="fill:#e91e63;fill-opacity:1" />
    <path
       id="path38"
       d="m 286.07031,283.50391 h 0.11328 0.0312 c 4.12891,0 7.48047,-3.33594 7.5,-7.46875 0.0195,-4.14063 -3.32422,-7.51172 -7.46875,-7.53125 h -0.11328 c -0.0117,0 -0.0195,0 -0.0312,0 -4.1289,0 -7.48437,3.33984 -7.5,7.46875 -0.0156,4.14062 3.32813,7.51562 7.46875,7.53125 z m 0,0"
       inkscape:connector-curvature="0"
       style="fill:#e91e63;fill-opacity:1" />
    <path
       id="path40"
       d="m 302.15234,414.37891 c -0.0117,0 -0.0195,0 -0.0312,0 -4.1289,0 -7.48047,3.33984 -7.5,7.46875 -0.0195,4.14062 3.32422,7.51562 7.46875,7.53125 h 0.11328 0.0312 c 4.12891,0 7.48047,-3.33594 7.5,-7.46875 0.0195,-4.14063 -3.32421,-7.51172 -7.46875,-7.53125 z m 0,0"
       inkscape:connector-curvature="0"
       style="fill:#e91e63;fill-opacity:1" />
    <path
       id="path42"
       d="m 225.17578,17.203125 h 0.11328 c 4.14453,0 7.5,-3.359375 7.5,-7.5 0,-4.144531 -3.35547,-7.5 -7.5,-7.5 h -0.11328 c -4.14062,0 -7.5,3.355469 -7.5,7.5 0,4.140625 3.35938,7.5 7.5,7.5 z m 0,0"
       inkscape:connector-curvature="0"
       style="fill:#e91e63;fill-opacity:1" />
  </g>
  <g
     id="g1016"
     transform="matrix(1.6661453,0,0,1.6661453,111.09798,-20.129855)">
    <path
       id="path887"
       d="m 36.388639,36.571262 v -0.0018 l -0.009,0.0082 z m 0,0"
       inkscape:connector-curvature="0"
       style="fill:#e91e63;fill-opacity:1;stroke-width:0.04493214" />
    <path
       id="path891"
       d="m 24.448274,32.408896 0.0021,0.01 v -0.01264 z m 0,0"
       inkscape:connector-curvature="0"
       style="fill:#e91e63;fill-opacity:1;stroke-width:0.04493214" />
    <path
       id="path893"
       d="m 22.176042,28.315684 c 0.695395,0.660818 1.462401,1.241777 2.286976,1.732169 0.04265,-0.251515 0.09899,-0.500572 0.168495,-0.746119 -0.512156,-0.323126 -1.004303,-0.677142 -1.473809,-1.059767 0.408075,-0.180606 0.706101,-0.544451 0.802635,-0.980258 0.420362,0.06792 0.898643,0.170778 1.42958,0.304872 0.131812,-0.218518 0.275209,-0.429839 0.429663,-0.633087 C 25.199483,26.7657 24.570785,26.631606 23.936294,26.531737 23.762884,25.919186 23.202987,25.49707 22.56639,25.499 h -0.0035 c -0.720318,-0.0053 -1.332694,0.524794 -1.430632,1.238443 -0.09794,0.713648 0.348751,1.38921 1.043795,1.578241 z m 0,0"
       inkscape:connector-curvature="0"
       style="fill:#e91e63;fill-opacity:1;stroke-width:0.04493214" />
    <path
       id="path895"
       d="m 24.860211,28.627401 0.0018,-0.0051 v 0.0028 z m 0,0"
       inkscape:connector-curvature="0"
       style="fill:#e91e63;fill-opacity:1;stroke-width:0.04493214" />
    <path
       id="path897"
       d="m 38.616993,32.501218 c -0.04283,0.250813 -0.09899,0.499168 -0.16832,0.744013 1.932433,1.245638 2.33296,1.898032 2.323834,2.033881 -0.187276,0.21571 -1.26477,0.16323 -3.082591,-0.29592 -0.13111,0.216938 -0.273454,0.426855 -0.426679,0.628699 0.148486,0.03932 0.299781,0.08056 0.442476,0.11549 0.800178,0.219044 1.622822,0.345942 2.451785,0.37771 0.893026,0 1.158583,-0.275735 1.269684,-0.531287 0.191839,-0.441423 0.09741,-1.240372 -2.810189,-3.072586 z m 0,0"
       inkscape:connector-curvature="0"
       style="fill:#e91e63;fill-opacity:1;stroke-width:0.04493214" />
    <path
       id="path901"
       d="m 32.25892,37.38478 c -1.8e-4,0.106187 0.0244,0.21097 0.07178,0.305925 0.140589,-0.0172 0.280475,-0.03598 0.41808,-0.06406 0.07196,-0.01316 0.50654,-0.114262 0.650639,-0.15779 0.05529,-0.0165 0.426679,-0.143747 0.554631,-0.196578 0.05037,-0.02018 0.100921,-0.03914 0.150592,-0.06073 0.146381,-0.06371 0.550419,-0.272049 0.611148,-0.305573 0.115138,-0.06564 0.228347,-0.134621 0.339624,-0.207109 0.01755,-0.01141 0.03598,-0.02141 0.05318,-0.033 h -2.130766 c -0.397194,0 -0.718914,0.321896 -0.718914,0.718914 z m 0,0"
       inkscape:connector-curvature="0"
       style="fill:#e91e63;fill-opacity:1;stroke-width:0.04493214" />
    <path
       id="path903"
       d="m 30.821091,33.430752 c 0,0.794035 -0.643793,1.437828 -1.437828,1.437828 h -0.193068 c 0.21448,0.369813 0.252392,0.816326 0.103203,1.216854 -0.149189,0.400703 -0.469856,0.713824 -0.873895,0.853184 0.954808,0.529181 2.028791,0.806497 3.120502,0.805619 0.01755,0 0.0358,-0.0025 0.05213,-0.0025 -0.03282,-0.116191 -0.05037,-0.236244 -0.05213,-0.357 0,-0.794034 0.643618,-1.437828 1.437829,-1.437828 h 3.025196 c 0.180958,-0.171128 0.352086,-0.352261 0.512508,-0.542696 -1.942965,-0.583591 -3.848719,-1.284076 -5.707084,-2.097945 0.0035,0.04177 0.01264,0.08197 0.01264,0.124441 z m 0,0"
       inkscape:connector-curvature="0"
       style="fill:#e91e63;fill-opacity:1;stroke-width:0.04493214" />
    <path
       id="path905"
       d="m 28.664348,35.587494 c 0,-0.397017 -0.321897,-0.718914 -0.718914,-0.718914 -0.198684,0 -0.359457,-0.160948 -0.359457,-0.359457 0,-0.198509 0.160773,-0.359457 0.359457,-0.359457 h 1.437829 c 0.304169,0.0014 0.576044,-0.189558 0.677843,-0.476175 0.101799,-0.286618 0.01123,-0.606233 -0.225714,-0.79702 -0.111804,-0.05072 -0.222204,-0.101799 -0.332954,-0.152347 -0.03932,-0.0075 -0.07916,-0.01176 -0.119175,-0.01229 h -4.144639 c 0.11584,0.508998 0.293287,1.002022 0.528479,1.468018 0.01,0.02018 0.01896,0.04107 0.02949,0.06073 0.06213,0.120755 0.13111,0.238 0.20079,0.354543 0.03107,0.0516 0.229751,0.359457 0.301361,0.457922 0.0416,0.05704 0.444583,0.548839 0.490568,0.59851 0.08565,0.09267 0.334358,0.337517 0.369637,0.370163 0.105661,0.09706 0.212024,0.19377 0.323476,0.284688 h 0.463012 c 0.397017,0 0.718914,-0.321897 0.718914,-0.718915 z m 0,0"
       inkscape:connector-curvature="0"
       style="fill:#e91e63;fill-opacity:1;stroke-width:0.04493214" />
    <path
       id="path907"
       d="m 30.207135,32.255671 c 0.250111,0.112857 0.502503,0.224836 0.757352,0.336114 1.949108,0.864417 3.953502,1.598425 6.000021,2.196935 0.479686,-0.738572 0.80246,-1.567885 0.948314,-2.43634 h -2.778245 c -0.513737,-1.79e-4 -0.988157,-0.274156 -1.244937,-0.719089 -0.25678,-0.444758 -0.25678,-0.992895 0,-1.437653 h -0.192892 c -0.794211,0 -1.437828,-0.643794 -1.437828,-1.437829 0,-0.794035 0.643617,-1.437828 1.437828,-1.437828 h 2.953235 c -1.107156,-1.433967 -2.765608,-2.336998 -4.570792,-2.48882 0.247127,0.444759 0.23993,0.987103 -0.01878,1.425192 -0.258887,0.438088 -0.730499,0.706101 -1.23932,0.70417 h -0.911982 c 0.25678,0.444759 0.25678,0.992896 0,1.437654 -0.256605,0.444933 -0.731201,0.718914 -1.244761,0.719089 h -3.217211 c -0.06757,0.191664 -0.126372,0.386487 -0.176218,0.584118 1.450114,0.861785 2.945512,1.644587 4.48005,2.345072 0.163054,0.04248 0.317509,0.113208 0.456166,0.209215 z m 0,0"
       inkscape:connector-curvature="0"
       style="fill:#e91e63;fill-opacity:1;stroke-width:0.04493214" />
    <path
       id="path909"
       d="m 25.127522,30.454173 c -0.07161,0.51005 -0.0767,1.027296 -0.01545,1.53875 h 2.860563 c -1.043795,-0.51865 -2.004219,-1.038529 -2.845117,-1.53875 z m 0,0"
       inkscape:connector-curvature="0"
       style="fill:#e91e63;fill-opacity:1;stroke-width:0.04493214" />
    <path
       id="path911"
       d="m 25.752711,28.398352 h 2.911637 c 0.397018,0 0.718915,-0.321897 0.718915,-0.718914 0,-0.397018 -0.321897,-0.718915 -0.718915,-0.718915 -0.198684,0 -0.359457,-0.160948 -0.359457,-0.359457 0,-0.198508 0.160773,-0.359457 0.359457,-0.359457 h 2.156743 c 0.357702,-0.0011 0.660292,-0.265205 0.709787,-0.619572 0.04932,-0.354367 -0.169373,-0.691182 -0.513209,-0.790174 -0.135499,0.01071 -0.269944,0.0265 -0.403336,0.04599 l -0.03879,0.0058 c -1.5047,0.231506 -2.880572,0.983241 -3.88821,2.124272 l -0.01299,0.01439 c -0.08267,0.09425 -0.29083,0.359457 -0.31628,0.393332 -0.115841,0.154454 -0.39772,0.594473 -0.431419,0.652745 -0.05072,0.08846 -0.09882,0.179728 -0.143748,0.269241 -0.01123,0.02018 -0.02053,0.04054 -0.03019,0.06073 z m 0,0"
       inkscape:connector-curvature="0"
       style="fill:#e91e63;fill-opacity:1;stroke-width:0.04493214" />
    <path
       id="path913"
       d="m 38.010233,31.274009 c 0,-0.194121 -0.01229,-0.384907 -0.02913,-0.575167 -0.0051,-0.05494 -0.126899,-0.815623 -0.143924,-0.886707 -0.0244,-0.103906 -0.05055,-0.206758 -0.07968,-0.308733 -0.02633,-0.09109 -0.133392,-0.40983 -0.159193,-0.478808 -0.06512,-0.174463 -0.262046,-0.611148 -0.285916,-0.656431 -0.05318,-0.105309 -0.107767,-0.209566 -0.167443,-0.312068 -0.0032,-0.0056 -0.0072,-0.01141 -0.01071,-0.01755 h -3.437484 c -0.397193,0 -0.718914,0.321896 -0.718914,0.718914 0,0.397018 0.321721,0.718914 0.718914,0.718914 h 1.437829 c 0.198508,0 0.359457,0.160949 0.359457,0.359458 0,0.198508 -0.160949,0.359457 -0.359457,0.359457 -0.397194,0 -0.718915,0.321896 -0.718915,0.718914 0,0.397018 0.321721,0.718914 0.718915,0.718914 h 2.857227 c 0.0068,-0.119351 0.01843,-0.237649 0.01843,-0.359106 z m 0,0"
       inkscape:connector-curvature="0"
       style="fill:#e91e63;fill-opacity:1;stroke-width:0.04493214" />
  </g>
  <g
     id="g1082"
     transform="matrix(0.0656059,0,0,0.0656059,19.755904,19.755937)"
     style="fill:#e91e63;fill-opacity:1">
    <g
       id="g1024"
       style="fill:#e91e63;fill-opacity:1">
	<path
   id="path1018"
   d="m 186.631,129.32 c -31.602,0 -57.311,25.709 -57.311,57.311 0,31.602 25.709,57.311 57.311,57.311 31.602,0 57.311,-25.709 57.311,-57.311 0,-31.602 -25.71,-57.311 -57.311,-57.311 z m 0,99.621 c -23.331,0 -42.311,-18.98 -42.311,-42.311 0,-23.331 18.98,-42.311 42.311,-42.311 23.331,0 42.311,18.98 42.311,42.311 0,23.331 -18.981,42.311 -42.311,42.311 z"
   inkscape:connector-curvature="0"
   style="fill:#e91e63;fill-opacity:1" />

	<path
   id="path1020"
   d="M 186.631,0 C 83.722,0 0,83.723 0,186.631 c 0,34.706 9.497,68.271 27.529,97.594 -6.855,7.089 -11.087,16.731 -11.087,27.348 0,21.712 17.664,39.375 39.375,39.375 9.969,0 19.079,-3.731 26.023,-9.862 30.961,21.074 67.022,32.175 104.791,32.175 102.909,0 186.631,-83.723 186.631,-186.631 C 373.262,83.722 289.54,0 186.631,0 Z M 55.817,335.948 c -13.44,0 -24.375,-10.935 -24.375,-24.375 0,-13.44 10.935,-24.375 24.375,-24.375 13.44,0 24.375,10.935 24.375,24.375 0,13.44 -10.935,24.375 -24.375,24.375 z m 130.814,22.314 c -34.431,0 -67.312,-10.033 -95.611,-29.081 2.663,-5.302 4.172,-11.281 4.172,-17.608 0,-21.712 -17.664,-39.375 -39.375,-39.375 -5.688,0 -11.093,1.222 -15.981,3.402 C 23.566,248.825 15,218.245 15,186.631 15,91.993 91.993,15 186.631,15 c 94.638,0 171.631,76.993 171.631,171.631 0,94.638 -76.993,171.631 -171.631,171.631 z"
   inkscape:connector-curvature="0"
   style="fill:#e91e63;fill-opacity:1" />

	<path
   id="path1022"
   d="m 290.764,122.198 c -0.83,0 -1.649,0.043 -2.462,0.111 -21.985,-34.691 -60.34,-55.988 -101.671,-55.988 -66.339,0 -120.31,53.971 -120.31,120.31 0,66.339 53.971,120.31 120.31,120.31 66.339,0 120.31,-53.971 120.31,-120.31 0,-3.423 -0.149,-6.865 -0.437,-10.274 8.189,-5.219 13.636,-14.374 13.636,-24.783 -10e-4,-16.198 -13.179,-29.376 -29.376,-29.376 z m 14.375,29.375 c 0,7.927 -6.449,14.375 -14.375,14.375 -7.926,0 -14.375,-6.448 -14.375,-14.375 0,-7.927 6.449,-14.375 14.375,-14.375 7.926,0 14.375,6.448 14.375,14.375 z m -13.199,35.058 c 0,58.068 -47.242,105.31 -105.31,105.31 -58.068,0 -105.31,-47.241 -105.31,-105.31 0,-58.069 47.242,-105.31 105.31,-105.31 35.076,0 67.703,17.525 87.201,46.271 -7.52,5.325 -12.443,14.086 -12.443,23.981 0,16.197 13.178,29.375 29.375,29.375 0.341,0 0.68,-0.014 1.018,-0.026 0.102,1.902 0.159,3.808 0.159,5.709 z"
   inkscape:connector-curvature="0"
   style="fill:#e91e63;fill-opacity:1" />

</g>
    <g
       id="g1026"
       style="fill:#e91e63;fill-opacity:1">
</g>
    <g
       id="g1028"
       style="fill:#e91e63;fill-opacity:1">
</g>
    <g
       id="g1030"
       style="fill:#e91e63;fill-opacity:1">
</g>
    <g
       id="g1032"
       style="fill:#e91e63;fill-opacity:1">
</g>
    <g
       id="g1034"
       style="fill:#e91e63;fill-opacity:1">
</g>
    <g
       id="g1036"
       style="fill:#e91e63;fill-opacity:1">
</g>
    <g
       id="g1038"
       style="fill:#e91e63;fill-opacity:1">
</g>
    <g
       id="g1040"
       style="fill:#e91e63;fill-opacity:1">
</g>
    <g
       id="g1042"
       style="fill:#e91e63;fill-opacity:1">
</g>
    <g
       id="g1044"
       style="fill:#e91e63;fill-opacity:1">
</g>
    <g
       id="g1046"
       style="fill:#e91e63;fill-opacity:1">
</g>
    <g
       id="g1048"
       style="fill:#e91e63;fill-opacity:1">
</g>
    <g
       id="g1050"
       style="fill:#e91e63;fill-opacity:1">
</g>
    <g
       id="g1052"
       style="fill:#e91e63;fill-opacity:1">
</g>
    <g
       id="g1054"
       style="fill:#e91e63;fill-opacity:1">
</g>
  </g>
  <circle
     style="opacity:1;fill:#e91e63;fill-opacity:1;fill-rule:nonzero;stroke:#ffffff;stroke-width:0;stroke-miterlimit:4;stroke-dasharray:none;stroke-dashoffset:0;stroke-opacity:0.55924174;paint-order:normal"
     id="path1084"
     cx="11.984859"
     cy="13.471827"
     r="3.1640031" />
</svg>
